<?xml version="1.0" encoding="UTF-8" standalone="no"?>
<!DOCTYPE svg PUBLIC "-//W3C//DTD SVG 1.1//EN"
 "http://www.w3.org/Graphics/SVG/1.1/DTD/svg11.dtd">
<!-- Generated by graphviz version 2.47.0 (20210316.0004)
 -->
<!-- Title: dependencies Pages: 1 -->
<svg width="888pt" height="355pt"
 viewBox="0.00 0.00 888.00 355.00" xmlns="http://www.w3.org/2000/svg" xmlns:xlink="http://www.w3.org/1999/xlink">
<g id="graph0" class="graph" transform="scale(1 1) rotate(0) translate(4 351)">
<title>dependencies</title>
<polygon fill="white" stroke="transparent" points="-4,4 -4,-351 884,-351 884,4 -4,4"/>
<text text-anchor="start" x="419.01" y="-42.4" font-family="sans-serif" font-weight="bold" font-size="14.00">Legend</text>
<polygon fill="#ffffb3" stroke="transparent" points="206,-10 206,-30 226,-30 226,-10 206,-10"/>
<text text-anchor="start" x="229.63" y="-15.4" font-family="sans-serif" font-size="14.00"> &#160;Declarations</text>
<polygon fill="#8dd3c7" stroke="transparent" points="319,-10 319,-30 339,-30 339,-10 319,-10"/>
<text text-anchor="start" x="342.73" y="-15.4" font-family="sans-serif" font-size="14.00"> &#160;Module</text>
<polygon fill="#80b1d3" stroke="transparent" points="405,-10 405,-30 425,-30 425,-10 405,-10"/>
<text text-anchor="start" x="428.78" y="-15.4" font-family="sans-serif" font-size="14.00"> &#160;Bootstrap</text>
<polygon fill="#fdb462" stroke="transparent" points="502,-10 502,-30 522,-30 522,-10 502,-10"/>
<text text-anchor="start" x="525.67" y="-15.4" font-family="sans-serif" font-size="14.00"> &#160;Providers</text>
<polygon fill="#fb8072" stroke="transparent" points="598,-10 598,-30 618,-30 618,-10 598,-10"/>
<text text-anchor="start" x="621.73" y="-15.4" font-family="sans-serif" font-size="14.00"> &#160;Exports</text>
<g id="clust1" class="cluster">
<title>cluster_AppModule</title>
<polygon fill="none" stroke="black" stroke-dasharray="1,5" points="48,-146 48,-339 320,-339 320,-146 48,-146"/>
</g>
<g id="clust3" class="cluster">
<title>cluster_AppModule_imports</title>
<polygon fill="none" stroke="black" points="204,-154 204,-274 312,-274 312,-154 204,-154"/>
</g>
<g id="clust6" class="cluster">
<title>cluster_AppModule_providers</title>
<polygon fill="none" stroke="black" points="56,-222 56,-274 186,-274 186,-222 56,-222"/>
</g>
<g id="clust7" class="cluster">
<title>cluster_AuthModule</title>
<polygon fill="none" stroke="black" stroke-dasharray="1,5" points="328,-146 328,-214 872,-214 872,-146 328,-146"/>
</g>
<g id="clust10" class="cluster">
<title>cluster_AuthModule_exports</title>
<polygon fill="none" stroke="black" points="758,-154 758,-206 864,-206 864,-154 758,-154"/>
</g>
<g id="clust12" class="cluster">
<title>cluster_AuthModule_providers</title>
<polygon fill="none" stroke="black" points="336,-154 336,-206 750,-206 750,-154 336,-154"/>
</g>
<g id="clust13" class="cluster">
<title>cluster_UsersModule</title>
<polygon fill="none" stroke="black" stroke-dasharray="1,5" points="8,-70 8,-138 484,-138 484,-70 8,-70"/>
</g>
<g id="clust16" class="cluster">
<title>cluster_UsersModule_exports</title>
<polygon fill="none" stroke="black" points="366,-78 366,-130 476,-130 476,-78 366,-78"/>
</g>
<g id="clust18" class="cluster">
<title>cluster_UsersModule_providers</title>
<polygon fill="none" stroke="black" points="16,-78 16,-130 358,-130 358,-78 16,-78"/>
</g>
<!-- AuthModule -->
<g id="node1" class="node">
<title>AuthModule</title>
<polygon fill="#8dd3c7" stroke="black" points="303.55,-266 300.55,-270 279.55,-270 276.55,-266 216.45,-266 216.45,-230 303.55,-230 303.55,-266"/>
<text text-anchor="middle" x="260" y="-243.8" font-family="Times,serif" font-size="14.00">AuthModule</text>
</g>
<!-- AppModule -->
<g id="node3" class="node">
<title>AppModule</title>
<polygon fill="#8dd3c7" stroke="black" points="238.66,-331 235.66,-335 214.66,-335 211.66,-331 155.34,-331 155.34,-295 238.66,-295 238.66,-331"/>
<text text-anchor="middle" x="197" y="-308.8" font-family="Times,serif" font-size="14.00">AppModule</text>
</g>
<!-- AuthModule&#45;&gt;AppModule -->
<g id="edge1" class="edge">
<title>AuthModule&#45;&gt;AppModule</title>
<path fill="none" stroke="black" d="M227.53,-266.11C227.53,-266.11 227.53,-284.99 227.53,-284.99"/>
<polygon fill="black" stroke="black" points="224.03,-284.99 227.53,-294.99 231.03,-284.99 224.03,-284.99"/>
</g>
<!-- AuthService  -->
<g id="node5" class="node">
<title>AuthService </title>
<polygon fill="#fb8072" stroke="black" points="855.98,-198 766.02,-198 766.02,-162 855.98,-162 855.98,-198"/>
<text text-anchor="middle" x="811" y="-175.8" font-family="Times,serif" font-size="14.00">AuthService </text>
</g>
<!-- AuthModule&#45;&gt;AuthService  -->
<g id="edge5" class="edge">
<title>AuthModule&#45;&gt;AuthService </title>
<path fill="none" stroke="black" stroke-dasharray="5,2" d="M303.7,-259C434.02,-259 811,-259 811,-259 811,-259 811,-208.32 811,-208.32"/>
<polygon fill="black" stroke="black" points="814.5,-208.32 811,-198.32 807.5,-208.32 814.5,-208.32"/>
</g>
<!-- UsersModule -->
<g id="node2" class="node">
<title>UsersModule</title>
<polygon fill="#8dd3c7" stroke="black" points="303.92,-198 300.92,-202 279.92,-202 276.92,-198 212.08,-198 212.08,-162 303.92,-162 303.92,-198"/>
<text text-anchor="middle" x="258" y="-175.8" font-family="Times,serif" font-size="14.00">UsersModule</text>
</g>
<!-- UsersModule&#45;&gt;AuthModule -->
<g id="edge4" class="edge">
<title>UsersModule&#45;&gt;AuthModule</title>
<path fill="none" stroke="black" d="M259.97,-198.22C259.97,-198.22 259.97,-219.73 259.97,-219.73"/>
<polygon fill="black" stroke="black" points="256.47,-219.73 259.97,-229.73 263.47,-219.73 256.47,-219.73"/>
</g>
<!-- UsersModule&#45;&gt;AppModule -->
<g id="edge2" class="edge">
<title>UsersModule&#45;&gt;AppModule</title>
<path fill="none" stroke="black" d="M212.18,-186C202.4,-186 194.95,-186 194.95,-186 194.95,-186 194.95,-284.8 194.95,-284.8"/>
<polygon fill="black" stroke="black" points="191.45,-284.8 194.95,-294.8 198.45,-284.8 191.45,-284.8"/>
</g>
<!-- UsersService  -->
<g id="node9" class="node">
<title>UsersService </title>
<polygon fill="#fb8072" stroke="black" points="467.85,-122 374.15,-122 374.15,-86 467.85,-86 467.85,-122"/>
<text text-anchor="middle" x="421" y="-99.8" font-family="Times,serif" font-size="14.00">UsersService </text>
</g>
<!-- UsersModule&#45;&gt;UsersService  -->
<g id="edge9" class="edge">
<title>UsersModule&#45;&gt;UsersService </title>
<path fill="none" stroke="black" stroke-dasharray="5,2" d="M273.24,-161.89C273.24,-152.1 273.24,-142 273.24,-142 273.24,-142 421,-142 421,-142 421,-142 421,-132.11 421,-132.11"/>
<polygon fill="black" stroke="black" points="424.5,-132.11 421,-122.11 417.5,-132.11 424.5,-132.11"/>
</g>
<!-- AppService -->
<g id="node4" class="node">
<title>AppService</title>
<ellipse fill="#fdb462" stroke="black" cx="121" cy="-248" rx="56.74" ry="18"/>
<text text-anchor="middle" x="121" y="-243.8" font-family="Times,serif" font-size="14.00">AppService</text>
</g>
<!-- AppService&#45;&gt;AppModule -->
<g id="edge3" class="edge">
<title>AppService&#45;&gt;AppModule</title>
<path fill="none" stroke="black" d="M166.4,-259.03C166.4,-259.03 166.4,-284.78 166.4,-284.78"/>
<polygon fill="black" stroke="black" points="162.9,-284.78 166.4,-294.78 169.9,-284.78 162.9,-284.78"/>
</g>
<!-- AuthService -->
<g id="node6" class="node">
<title>AuthService</title>
<ellipse fill="#fdb462" stroke="black" cx="683" cy="-180" rx="59.11" ry="18"/>
<text text-anchor="middle" x="683" y="-175.8" font-family="Times,serif" font-size="14.00">AuthService</text>
</g>
<!-- AuthService&#45;&gt;AuthModule -->
<g id="edge6" class="edge">
<title>AuthService&#45;&gt;AuthModule</title>
<path fill="none" stroke="black" d="M683,-198.17C683,-219.5 683,-252 683,-252 683,-252 313.68,-252 313.68,-252"/>
<polygon fill="black" stroke="black" points="313.68,-248.5 303.68,-252 313.68,-255.5 313.68,-248.5"/>
</g>
<!-- JwtStrategy -->
<g id="node7" class="node">
<title>JwtStrategy</title>
<ellipse fill="#fdb462" stroke="black" cx="549" cy="-180" rx="56.76" ry="18"/>
<text text-anchor="middle" x="549" y="-175.8" font-family="Times,serif" font-size="14.00">JwtStrategy</text>
</g>
<!-- JwtStrategy&#45;&gt;AuthModule -->
<g id="edge7" class="edge">
<title>JwtStrategy&#45;&gt;AuthModule</title>
<path fill="none" stroke="black" d="M549,-198.11C549,-217.34 549,-245 549,-245 549,-245 313.58,-245 313.58,-245"/>
<polygon fill="black" stroke="black" points="313.58,-241.5 303.58,-245 313.58,-248.5 313.58,-241.5"/>
</g>
<!-- LocalStrategy -->
<g id="node8" class="node">
<title>LocalStrategy</title>
<ellipse fill="#fdb462" stroke="black" cx="409" cy="-180" rx="65.41" ry="18"/>
<text text-anchor="middle" x="409" y="-175.8" font-family="Times,serif" font-size="14.00">LocalStrategy</text>
</g>
<!-- LocalStrategy&#45;&gt;AuthModule -->
<g id="edge8" class="edge">
<title>LocalStrategy&#45;&gt;AuthModule</title>
<path fill="none" stroke="black" d="M409,-198.03C409,-215.06 409,-238 409,-238 409,-238 313.9,-238 313.9,-238"/>
<polygon fill="black" stroke="black" points="313.9,-234.5 303.9,-238 313.9,-241.5 313.9,-234.5"/>
</g>
<!-- ExistsCPFConstraint -->
<g id="node10" class="node">
<title>ExistsCPFConstraint</title>
<ellipse fill="#fdb462" stroke="black" cx="258" cy="-104" rx="92.11" ry="18"/>
<text text-anchor="middle" x="258" y="-99.8" font-family="Times,serif" font-size="14.00">ExistsCPFConstraint</text>
</g>
<!-- ExistsCPFConstraint&#45;&gt;UsersModule -->
<g id="edge10" class="edge">
<title>ExistsCPFConstraint&#45;&gt;UsersModule</title>
<path fill="none" stroke="black" d="M242.76,-122.01C242.76,-122.01 242.76,-151.85 242.76,-151.85"/>
<polygon fill="black" stroke="black" points="239.26,-151.85 242.76,-161.85 246.26,-151.85 239.26,-151.85"/>
</g>
<!-- UsersService -->
<g id="node11" class="node">
<title>UsersService</title>
<ellipse fill="#fdb462" stroke="black" cx="86" cy="-104" rx="61.95" ry="18"/>
<text text-anchor="middle" x="86" y="-99.8" font-family="Times,serif" font-size="14.00">UsersService</text>
</g>
<!-- UsersService&#45;&gt;UsersModule -->
<g id="edge11" class="edge">
<title>UsersService&#45;&gt;UsersModule</title>
<path fill="none" stroke="black" d="M106.18,-121.3C106.18,-142.03 106.18,-174 106.18,-174 106.18,-174 202.04,-174 202.04,-174"/>
<polygon fill="black" stroke="black" points="202.04,-177.5 212.04,-174 202.04,-170.5 202.04,-177.5"/>
</g>
</g>
</svg>
