<?xml version="1.0" encoding="UTF-8" standalone="no"?>
<!DOCTYPE svg PUBLIC "-//W3C//DTD SVG 1.1//EN"
 "http://www.w3.org/Graphics/SVG/1.1/DTD/svg11.dtd">
<!-- Generated by graphviz version 2.47.0 (20210316.0004)
 -->
<!-- Title: dependencies Pages: 1 -->
<svg width="504pt" height="287pt"
 viewBox="0.00 0.00 504.00 287.00" xmlns="http://www.w3.org/2000/svg" xmlns:xlink="http://www.w3.org/1999/xlink">
<g id="graph0" class="graph" transform="scale(1 1) rotate(0) translate(4 283)">
<title>dependencies</title>
<polygon fill="white" stroke="transparent" points="-4,4 -4,-283 500,-283 500,4 -4,4"/>
<text text-anchor="start" x="227.01" y="-42.4" font-family="sans-serif" font-weight="bold" font-size="14.00">Legend</text>
<polygon fill="#ffffb3" stroke="transparent" points="14,-10 14,-30 34,-30 34,-10 14,-10"/>
<text text-anchor="start" x="37.63" y="-15.4" font-family="sans-serif" font-size="14.00"> &#160;Declarations</text>
<polygon fill="#8dd3c7" stroke="transparent" points="127,-10 127,-30 147,-30 147,-10 127,-10"/>
<text text-anchor="start" x="150.73" y="-15.4" font-family="sans-serif" font-size="14.00"> &#160;Module</text>
<polygon fill="#80b1d3" stroke="transparent" points="213,-10 213,-30 233,-30 233,-10 213,-10"/>
<text text-anchor="start" x="236.78" y="-15.4" font-family="sans-serif" font-size="14.00"> &#160;Bootstrap</text>
<polygon fill="#fdb462" stroke="transparent" points="310,-10 310,-30 330,-30 330,-10 310,-10"/>
<text text-anchor="start" x="333.67" y="-15.4" font-family="sans-serif" font-size="14.00"> &#160;Providers</text>
<polygon fill="#fb8072" stroke="transparent" points="406,-10 406,-30 426,-30 426,-10 406,-10"/>
<text text-anchor="start" x="429.73" y="-15.4" font-family="sans-serif" font-size="14.00"> &#160;Exports</text>
<g id="clust1" class="cluster">
<title>cluster_AppModule</title>
<polygon fill="none" stroke="black" stroke-dasharray="1,5" points="66,-146 66,-271 328,-271 328,-146 66,-146"/>
</g>
<g id="clust3" class="cluster">
<title>cluster_AppModule_imports</title>
<polygon fill="none" stroke="black" points="212,-154 212,-206 320,-206 320,-154 212,-154"/>
</g>
<g id="clust6" class="cluster">
<title>cluster_AppModule_providers</title>
<polygon fill="none" stroke="black" points="74,-154 74,-206 204,-206 204,-154 74,-154"/>
</g>
<g id="clust7" class="cluster">
<title>cluster_UsersModule</title>
<polygon fill="none" stroke="black" stroke-dasharray="1,5" points="72,-70 72,-138 430,-138 430,-70 72,-70"/>
</g>
<g id="clust12" class="cluster">
<title>cluster_UsersModule_providers</title>
<polygon fill="none" stroke="black" points="80,-78 80,-130 422,-130 422,-78 80,-78"/>
</g>
<!-- UsersModule -->
<g id="node1" class="node">
<title>UsersModule</title>
<polygon fill="#8dd3c7" stroke="black" points="311.92,-198 308.92,-202 287.92,-202 284.92,-198 220.08,-198 220.08,-162 311.92,-162 311.92,-198"/>
<text text-anchor="middle" x="266" y="-175.8" font-family="Times,serif" font-size="14.00">UsersModule</text>
</g>
<!-- AppModule -->
<g id="node2" class="node">
<title>AppModule</title>
<polygon fill="#8dd3c7" stroke="black" points="243.66,-263 240.66,-267 219.66,-267 216.66,-263 160.34,-263 160.34,-227 243.66,-227 243.66,-263"/>
<text text-anchor="middle" x="202" y="-240.8" font-family="Times,serif" font-size="14.00">AppModule</text>
</g>
<!-- UsersModule&#45;&gt;AppModule -->
<g id="edge1" class="edge">
<title>UsersModule&#45;&gt;AppModule</title>
<path fill="none" stroke="black" d="M232.06,-198.11C232.06,-198.11 232.06,-216.99 232.06,-216.99"/>
<polygon fill="black" stroke="black" points="228.56,-216.99 232.06,-226.99 235.56,-216.99 228.56,-216.99"/>
</g>
<!-- AppService -->
<g id="node3" class="node">
<title>AppService</title>
<ellipse fill="#fdb462" stroke="black" cx="139" cy="-180" rx="56.74" ry="18"/>
<text text-anchor="middle" x="139" y="-175.8" font-family="Times,serif" font-size="14.00">AppService</text>
</g>
<!-- AppService&#45;&gt;AppModule -->
<g id="edge2" class="edge">
<title>AppService&#45;&gt;AppModule</title>
<path fill="none" stroke="black" d="M177.9,-193.15C177.9,-193.15 177.9,-216.69 177.9,-216.69"/>
<polygon fill="black" stroke="black" points="174.4,-216.69 177.9,-226.69 181.4,-216.69 174.4,-216.69"/>
</g>
<!-- ExistsCPFConstraint -->
<g id="node4" class="node">
<title>ExistsCPFConstraint</title>
<ellipse fill="#fdb462" stroke="black" cx="322" cy="-104" rx="92.11" ry="18"/>
<text text-anchor="middle" x="322" y="-99.8" font-family="Times,serif" font-size="14.00">ExistsCPFConstraint</text>
</g>
<!-- ExistsCPFConstraint&#45;&gt;UsersModule -->
<g id="edge3" class="edge">
<title>ExistsCPFConstraint&#45;&gt;UsersModule</title>
<path fill="none" stroke="black" d="M270.83,-119.02C270.83,-119.02 270.83,-151.8 270.83,-151.8"/>
<polygon fill="black" stroke="black" points="267.33,-151.8 270.83,-161.8 274.33,-151.8 267.33,-151.8"/>
</g>
<!-- UsersService -->
<g id="node5" class="node">
<title>UsersService</title>
<ellipse fill="#fdb462" stroke="black" cx="150" cy="-104" rx="61.95" ry="18"/>
<text text-anchor="middle" x="150" y="-99.8" font-family="Times,serif" font-size="14.00">UsersService</text>
</g>
<!-- UsersService&#45;&gt;UsersModule -->
<g id="edge4" class="edge">
<title>UsersService&#45;&gt;UsersModule</title>
<path fill="none" stroke="black" d="M212.03,-104C219.82,-104 225.12,-104 225.12,-104 225.12,-104 225.12,-151.99 225.12,-151.99"/>
<polygon fill="black" stroke="black" points="221.62,-151.99 225.12,-161.99 228.62,-151.99 221.62,-151.99"/>
</g>
</g>
</svg>
